<svg xmlns="http://www.w3.org/2000/svg" width="360" height="108" viewBox="0 0 360 108" role="img" aria-labelledby="title">
  <title id="title">luxurytheme.com</title>
  <rect width="360" height="108" fill="#F7F5F0"/>
  <g transform="translate(22 19)" fill="none" stroke="#B89B5E" stroke-linecap="round" stroke-linejoin="round">
    <circle cx="36" cy="42" r="23" stroke-width="3"/>
    <circle cx="36" cy="42" r="17" stroke-width="1.7"/>
    <path d="M25 17 18 4 31 12 36 2 41 12 54 4 47 17" stroke-width="2.6"/>
    <path d="M22 26h28" stroke-width="2.2"/>
    <path d="M36 29v13l10-8" stroke-width="2.5"/>
    <path d="M36 24v-4M36 64v-4M14 42h4M54 42h4M21 27l3 3M48 56l3 3M21 57l3-3M48 28l3-3" stroke-width="1.5"/>
  </g>
  <text x="92" y="57" fill="#0B0B0B" font-family="Cormorant Garamond, Georgia, serif" font-size="40" font-weight="400" letter-spacing="0">luxurytheme</text>
  <text x="305" y="57" fill="#B89B5E" font-family="Inter, Arial, sans-serif" font-size="21" font-weight="700" letter-spacing="0">.com</text>
  <path d="M94 72h205" stroke="#D1BD8A" stroke-width="1"/>
</svg>
